<mxfile host="app.diagrams.net" agent="Mozilla/5.0 (Windows NT 10.0; Win64; x64) AppleWebKit/537.36 (KHTML, like Gecko) Chrome/130.0.0.0 Safari/537.36 Edg/130.0.0.0" version="24.8.6">
  <diagram id="AXRmiALY-gt5mDKcBv-0" name="Page-1">
    <mxGraphModel dx="2564" dy="1130" grid="1" gridSize="10" guides="1" tooltips="1" connect="1" arrows="1" fold="1" page="1" pageScale="1" pageWidth="1654" pageHeight="1169" math="0" shadow="0">
      <root>
        <mxCell id="0" />
        <mxCell id="1" parent="0" />
        <mxCell id="44JA2y2ataHQky69MdP7-1" value="School" style="whiteSpace=wrap;html=1;align=center;" parent="1" vertex="1">
          <mxGeometry x="768" y="261" width="125" height="50" as="geometry" />
        </mxCell>
        <mxCell id="44JA2y2ataHQky69MdP7-2" value="Teacher" style="whiteSpace=wrap;html=1;align=center;" parent="1" vertex="1">
          <mxGeometry x="443.5" y="388" width="125" height="50" as="geometry" />
        </mxCell>
        <mxCell id="44JA2y2ataHQky69MdP7-4" value="leads" style="shape=rhombus;perimeter=rhombusPerimeter;whiteSpace=wrap;html=1;align=center;" parent="1" vertex="1">
          <mxGeometry x="627.5" y="383" width="80" height="60" as="geometry" />
        </mxCell>
        <mxCell id="44JA2y2ataHQky69MdP7-5" value="Places" style="shape=rhombus;perimeter=rhombusPerimeter;whiteSpace=wrap;html=1;align=center;" parent="1" vertex="1">
          <mxGeometry x="911" y="383" width="80" height="60" as="geometry" />
        </mxCell>
        <mxCell id="44JA2y2ataHQky69MdP7-6" value="Student" style="whiteSpace=wrap;html=1;align=center;" parent="1" vertex="1">
          <mxGeometry x="1046" y="388" width="125" height="50" as="geometry" />
        </mxCell>
        <mxCell id="44JA2y2ataHQky69MdP7-13" value="Subject" style="whiteSpace=wrap;html=1;align=center;" parent="1" vertex="1">
          <mxGeometry x="296" y="596" width="125" height="50" as="geometry" />
        </mxCell>
        <mxCell id="44JA2y2ataHQky69MdP7-18" value="" style="endArrow=none;html=1;rounded=0;exitX=0;exitY=0.5;exitDx=0;exitDy=0;entryX=0.5;entryY=0;entryDx=0;entryDy=0;" parent="1" source="44JA2y2ataHQky69MdP7-2" edge="1">
          <mxGeometry relative="1" as="geometry">
            <mxPoint x="451" y="583" as="sourcePoint" />
            <mxPoint x="358.5" y="455" as="targetPoint" />
            <Array as="points">
              <mxPoint x="358" y="413" />
            </Array>
          </mxGeometry>
        </mxCell>
        <mxCell id="44JA2y2ataHQky69MdP7-19" value="N" style="resizable=0;html=1;align=left;verticalAlign=bottom;" parent="44JA2y2ataHQky69MdP7-18" connectable="0" vertex="1">
          <mxGeometry x="-1" relative="1" as="geometry">
            <mxPoint x="-18" y="-2" as="offset" />
          </mxGeometry>
        </mxCell>
        <mxCell id="44JA2y2ataHQky69MdP7-20" value="" style="endArrow=none;html=1;rounded=0;entryX=0.5;entryY=0;entryDx=0;entryDy=0;exitX=0.5;exitY=1;exitDx=0;exitDy=0;" parent="1" target="44JA2y2ataHQky69MdP7-13" edge="1">
          <mxGeometry relative="1" as="geometry">
            <mxPoint x="358.5" y="515" as="sourcePoint" />
            <mxPoint x="876" y="546" as="targetPoint" />
          </mxGeometry>
        </mxCell>
        <mxCell id="44JA2y2ataHQky69MdP7-21" value="1" style="resizable=0;html=1;align=right;verticalAlign=bottom;" parent="44JA2y2ataHQky69MdP7-20" connectable="0" vertex="1">
          <mxGeometry x="1" relative="1" as="geometry">
            <mxPoint x="-9" y="-4" as="offset" />
          </mxGeometry>
        </mxCell>
        <mxCell id="GqPJHAfUIOkbrMCgCJUh-10" value="1" style="resizable=0;html=1;align=right;verticalAlign=bottom;" parent="44JA2y2ataHQky69MdP7-20" connectable="0" vertex="1">
          <mxGeometry x="1" relative="1" as="geometry">
            <mxPoint x="225" y="-185" as="offset" />
          </mxGeometry>
        </mxCell>
        <mxCell id="GqPJHAfUIOkbrMCgCJUh-14" value="1" style="resizable=0;html=1;align=right;verticalAlign=bottom;" parent="44JA2y2ataHQky69MdP7-20" connectable="0" vertex="1">
          <mxGeometry x="1" relative="1" as="geometry">
            <mxPoint x="141" y="-134" as="offset" />
          </mxGeometry>
        </mxCell>
        <mxCell id="44JA2y2ataHQky69MdP7-22" value="" style="endArrow=none;html=1;rounded=0;exitX=1;exitY=0.5;exitDx=0;exitDy=0;entryX=0;entryY=0.5;entryDx=0;entryDy=0;" parent="1" source="44JA2y2ataHQky69MdP7-2" target="44JA2y2ataHQky69MdP7-4" edge="1">
          <mxGeometry relative="1" as="geometry">
            <mxPoint x="531" y="463" as="sourcePoint" />
            <mxPoint x="691" y="463" as="targetPoint" />
          </mxGeometry>
        </mxCell>
        <mxCell id="44JA2y2ataHQky69MdP7-23" value="1" style="resizable=0;html=1;align=right;verticalAlign=bottom;" parent="44JA2y2ataHQky69MdP7-22" connectable="0" vertex="1">
          <mxGeometry x="1" relative="1" as="geometry">
            <mxPoint x="-8" y="-55" as="offset" />
          </mxGeometry>
        </mxCell>
        <mxCell id="44JA2y2ataHQky69MdP7-24" value="" style="endArrow=none;html=1;rounded=0;exitX=0.5;exitY=1;exitDx=0;exitDy=0;entryX=0;entryY=0.5;entryDx=0;entryDy=0;" parent="1" source="44JA2y2ataHQky69MdP7-4" edge="1">
          <mxGeometry relative="1" as="geometry">
            <mxPoint x="446" y="573" as="sourcePoint" />
            <mxPoint x="768" y="547" as="targetPoint" />
            <Array as="points">
              <mxPoint x="669" y="547" />
            </Array>
          </mxGeometry>
        </mxCell>
        <mxCell id="44JA2y2ataHQky69MdP7-26" value="" style="endArrow=none;html=1;rounded=0;exitX=0.5;exitY=1;exitDx=0;exitDy=0;entryX=0.5;entryY=0;entryDx=0;entryDy=0;" parent="1" source="44JA2y2ataHQky69MdP7-1" edge="1">
          <mxGeometry relative="1" as="geometry">
            <mxPoint x="826" y="393" as="sourcePoint" />
            <mxPoint x="830.5" y="383" as="targetPoint" />
          </mxGeometry>
        </mxCell>
        <mxCell id="44JA2y2ataHQky69MdP7-28" value="" style="endArrow=none;html=1;rounded=0;exitX=0.5;exitY=1;exitDx=0;exitDy=0;entryX=0.5;entryY=0;entryDx=0;entryDy=0;" parent="1" edge="1">
          <mxGeometry relative="1" as="geometry">
            <mxPoint x="830.5" y="443" as="sourcePoint" />
            <mxPoint x="830.5" y="522" as="targetPoint" />
          </mxGeometry>
        </mxCell>
        <mxCell id="44JA2y2ataHQky69MdP7-29" value="N" style="resizable=0;html=1;align=right;verticalAlign=bottom;" parent="44JA2y2ataHQky69MdP7-28" connectable="0" vertex="1">
          <mxGeometry x="1" relative="1" as="geometry">
            <mxPoint x="-8" y="-7" as="offset" />
          </mxGeometry>
        </mxCell>
        <mxCell id="3zoKb5Z7oSnxqDjQIx2D-119" value="N" style="resizable=0;html=1;align=right;verticalAlign=bottom;" parent="44JA2y2ataHQky69MdP7-28" connectable="0" vertex="1">
          <mxGeometry x="1" relative="1" as="geometry">
            <mxPoint x="-3" y="328" as="offset" />
          </mxGeometry>
        </mxCell>
        <mxCell id="3zoKb5Z7oSnxqDjQIx2D-121" value="N" style="resizable=0;html=1;align=right;verticalAlign=bottom;" parent="44JA2y2ataHQky69MdP7-28" connectable="0" vertex="1">
          <mxGeometry x="1" relative="1" as="geometry">
            <mxPoint x="80" y="-212" as="offset" />
          </mxGeometry>
        </mxCell>
        <mxCell id="44JA2y2ataHQky69MdP7-30" value="" style="endArrow=none;html=1;rounded=0;entryX=1;entryY=0.5;entryDx=0;entryDy=0;exitX=0.5;exitY=0;exitDx=0;exitDy=0;" parent="1" source="44JA2y2ataHQky69MdP7-5" target="3zoKb5Z7oSnxqDjQIx2D-1" edge="1">
          <mxGeometry relative="1" as="geometry">
            <mxPoint x="956" y="513" as="sourcePoint" />
            <mxPoint x="893" y="547" as="targetPoint" />
            <Array as="points">
              <mxPoint x="951" y="286" />
            </Array>
          </mxGeometry>
        </mxCell>
        <mxCell id="44JA2y2ataHQky69MdP7-52" value="" style="endArrow=none;html=1;rounded=0;exitX=1;exitY=0.5;exitDx=0;exitDy=0;entryX=0;entryY=0.5;entryDx=0;entryDy=0;" parent="1" source="44JA2y2ataHQky69MdP7-5" target="44JA2y2ataHQky69MdP7-6" edge="1">
          <mxGeometry relative="1" as="geometry">
            <mxPoint x="1006" y="517" as="sourcePoint" />
            <mxPoint x="966" y="303" as="targetPoint" />
            <Array as="points">
              <mxPoint x="1006" y="413" />
            </Array>
          </mxGeometry>
        </mxCell>
        <mxCell id="44JA2y2ataHQky69MdP7-54" value="username" style="ellipse;whiteSpace=wrap;html=1;align=center;fontStyle=4;" parent="1" vertex="1">
          <mxGeometry x="991" y="318" width="100" height="40" as="geometry" />
        </mxCell>
        <mxCell id="44JA2y2ataHQky69MdP7-58" value="username" style="ellipse;whiteSpace=wrap;html=1;align=center;fontStyle=4;" parent="1" vertex="1">
          <mxGeometry x="365" y="321" width="100" height="40" as="geometry" />
        </mxCell>
        <mxCell id="7AU6V-Iv7sigpqtOASVo-17" value="" style="endArrow=none;html=1;rounded=0;exitX=0.5;exitY=1;exitDx=0;exitDy=0;entryX=0.25;entryY=0;entryDx=0;entryDy=0;" parent="1" source="Fs-P9uawNe1BK479JkNB-6" target="44JA2y2ataHQky69MdP7-13" edge="1">
          <mxGeometry relative="1" as="geometry">
            <mxPoint x="378.79999999999995" y="576.2" as="sourcePoint" />
            <mxPoint x="421" y="556" as="targetPoint" />
          </mxGeometry>
        </mxCell>
        <mxCell id="7AU6V-Iv7sigpqtOASVo-18" value="" style="endArrow=none;html=1;rounded=0;exitX=1;exitY=1;exitDx=0;exitDy=0;entryX=0.25;entryY=0;entryDx=0;entryDy=0;" parent="1" source="44JA2y2ataHQky69MdP7-58" target="44JA2y2ataHQky69MdP7-2" edge="1">
          <mxGeometry relative="1" as="geometry">
            <mxPoint x="276" y="593" as="sourcePoint" />
            <mxPoint x="556" y="343" as="targetPoint" />
          </mxGeometry>
        </mxCell>
        <mxCell id="7AU6V-Iv7sigpqtOASVo-19" value="" style="endArrow=none;html=1;rounded=0;entryX=1;entryY=1;entryDx=0;entryDy=0;exitX=0.25;exitY=0;exitDx=0;exitDy=0;" parent="1" source="44JA2y2ataHQky69MdP7-1" target="SavpHXavoWHPZ_VgcG3C-14" edge="1">
          <mxGeometry relative="1" as="geometry">
            <mxPoint x="799" y="260" as="sourcePoint" />
            <mxPoint x="772.3000000000002" y="239.15999999999997" as="targetPoint" />
          </mxGeometry>
        </mxCell>
        <mxCell id="7AU6V-Iv7sigpqtOASVo-21" value="" style="endArrow=none;html=1;rounded=0;exitX=0.5;exitY=1;exitDx=0;exitDy=0;entryX=0.25;entryY=0;entryDx=0;entryDy=0;" parent="1" source="44JA2y2ataHQky69MdP7-54" target="44JA2y2ataHQky69MdP7-6" edge="1">
          <mxGeometry relative="1" as="geometry">
            <mxPoint x="1091" y="253" as="sourcePoint" />
            <mxPoint x="1251" y="253" as="targetPoint" />
          </mxGeometry>
        </mxCell>
        <mxCell id="7AU6V-Iv7sigpqtOASVo-35" value="" style="endArrow=none;html=1;rounded=0;exitX=0.5;exitY=0;exitDx=0;exitDy=0;entryX=0.25;entryY=1;entryDx=0;entryDy=0;" parent="1" source="pHJCCJj9AauGWwzdFwsg-11" edge="1">
          <mxGeometry relative="1" as="geometry">
            <mxPoint x="744" y="608.0000000000001" as="sourcePoint" />
            <mxPoint x="799.25" y="572" as="targetPoint" />
          </mxGeometry>
        </mxCell>
        <mxCell id="7AU6V-Iv7sigpqtOASVo-37" value="school name" style="ellipse;whiteSpace=wrap;html=1;align=center;" parent="1" vertex="1">
          <mxGeometry x="780.5" y="150" width="100" height="40" as="geometry" />
        </mxCell>
        <mxCell id="7AU6V-Iv7sigpqtOASVo-38" value="" style="endArrow=none;html=1;rounded=0;entryX=0.5;entryY=1;entryDx=0;entryDy=0;exitX=0.5;exitY=0;exitDx=0;exitDy=0;" parent="1" source="44JA2y2ataHQky69MdP7-1" target="7AU6V-Iv7sigpqtOASVo-37" edge="1">
          <mxGeometry relative="1" as="geometry">
            <mxPoint x="844" y="253" as="sourcePoint" />
            <mxPoint x="1123" y="300" as="targetPoint" />
          </mxGeometry>
        </mxCell>
        <mxCell id="7AU6V-Iv7sigpqtOASVo-42" value="name" style="ellipse;whiteSpace=wrap;html=1;align=center;" parent="1" vertex="1">
          <mxGeometry x="542.5" y="318" width="100" height="40" as="geometry" />
        </mxCell>
        <mxCell id="7AU6V-Iv7sigpqtOASVo-44" value="" style="endArrow=none;html=1;rounded=0;exitX=0.75;exitY=0;exitDx=0;exitDy=0;entryX=0;entryY=1;entryDx=0;entryDy=0;" parent="1" source="44JA2y2ataHQky69MdP7-2" edge="1">
          <mxGeometry relative="1" as="geometry">
            <mxPoint x="546" y="373" as="sourcePoint" />
            <mxPoint x="565.8544793961721" y="355.22556786345433" as="targetPoint" />
          </mxGeometry>
        </mxCell>
        <mxCell id="Fs-P9uawNe1BK479JkNB-6" value="Name" style="ellipse;whiteSpace=wrap;html=1;align=center;fontStyle=4;" parent="1" vertex="1">
          <mxGeometry x="160" y="565" width="100" height="40" as="geometry" />
        </mxCell>
        <mxCell id="SavpHXavoWHPZ_VgcG3C-10" value="principal" style="ellipse;whiteSpace=wrap;html=1;align=center;" parent="1" vertex="1">
          <mxGeometry x="861" y="200" width="100" height="40" as="geometry" />
        </mxCell>
        <mxCell id="SavpHXavoWHPZ_VgcG3C-11" value="" style="endArrow=none;html=1;rounded=0;entryX=0;entryY=1;entryDx=0;entryDy=0;exitX=0.75;exitY=0;exitDx=0;exitDy=0;" parent="1" source="44JA2y2ataHQky69MdP7-1" target="SavpHXavoWHPZ_VgcG3C-10" edge="1">
          <mxGeometry relative="1" as="geometry">
            <mxPoint x="809" y="270" as="sourcePoint" />
            <mxPoint x="782.3" y="239.15999999999997" as="targetPoint" />
          </mxGeometry>
        </mxCell>
        <mxCell id="SavpHXavoWHPZ_VgcG3C-13" value="" style="endArrow=none;html=1;rounded=0;entryX=0.75;entryY=1;entryDx=0;entryDy=0;exitX=0.5;exitY=0;exitDx=0;exitDy=0;" parent="1" source="pHJCCJj9AauGWwzdFwsg-12" target="pHJCCJj9AauGWwzdFwsg-6" edge="1">
          <mxGeometry relative="1" as="geometry">
            <mxPoint x="830.5" y="655" as="sourcePoint" />
            <mxPoint x="830.5" y="572" as="targetPoint" />
          </mxGeometry>
        </mxCell>
        <mxCell id="SavpHXavoWHPZ_VgcG3C-14" value="address" style="ellipse;whiteSpace=wrap;html=1;align=center;fontStyle=4;" parent="1" vertex="1">
          <mxGeometry x="698" y="200" width="100" height="40" as="geometry" />
        </mxCell>
        <mxCell id="pHJCCJj9AauGWwzdFwsg-6" value="Class" style="shape=ext;margin=3;double=1;whiteSpace=wrap;html=1;align=center;" parent="1" vertex="1">
          <mxGeometry x="768" y="522" width="125" height="50" as="geometry" />
        </mxCell>
        <mxCell id="pHJCCJj9AauGWwzdFwsg-11" value="&lt;span style=&quot;border-bottom: 1px dotted&quot;&gt;Quantity&lt;/span&gt;" style="ellipse;whiteSpace=wrap;html=1;align=center;" parent="1" vertex="1">
          <mxGeometry x="680.5" y="680" width="100" height="40" as="geometry" />
        </mxCell>
        <mxCell id="pHJCCJj9AauGWwzdFwsg-12" value="&lt;span style=&quot;border-bottom: 1px dotted&quot;&gt;Unit Price&lt;br&gt;&lt;/span&gt;" style="ellipse;whiteSpace=wrap;html=1;align=center;" parent="1" vertex="1">
          <mxGeometry x="920" y="646" width="100" height="40" as="geometry" />
        </mxCell>
        <mxCell id="3zoKb5Z7oSnxqDjQIx2D-123" style="edgeStyle=orthogonalEdgeStyle;rounded=0;orthogonalLoop=1;jettySize=auto;html=1;exitX=0;exitY=0.5;exitDx=0;exitDy=0;entryX=1;entryY=0.5;entryDx=0;entryDy=0;" parent="1" source="3zoKb5Z7oSnxqDjQIx2D-1" target="3zoKb5Z7oSnxqDjQIx2D-122" edge="1">
          <mxGeometry relative="1" as="geometry" />
        </mxCell>
        <mxCell id="3zoKb5Z7oSnxqDjQIx2D-1" value="Order Header" style="whiteSpace=wrap;html=1;align=center;" parent="1" vertex="1">
          <mxGeometry x="768" y="261" width="125" height="50" as="geometry" />
        </mxCell>
        <mxCell id="3zoKb5Z7oSnxqDjQIx2D-2" value="Product" style="whiteSpace=wrap;html=1;align=center;" parent="1" vertex="1">
          <mxGeometry x="443.5" y="388" width="125" height="50" as="geometry" />
        </mxCell>
        <mxCell id="3zoKb5Z7oSnxqDjQIx2D-3" value="Part of" style="shape=rhombus;perimeter=rhombusPerimeter;whiteSpace=wrap;html=1;align=center;" parent="1" vertex="1">
          <mxGeometry x="627.5" y="383" width="80" height="60" as="geometry" />
        </mxCell>
        <mxCell id="3zoKb5Z7oSnxqDjQIx2D-5" value="Customer" style="whiteSpace=wrap;html=1;align=center;" parent="1" vertex="1">
          <mxGeometry x="1046" y="388" width="125" height="50" as="geometry" />
        </mxCell>
        <mxCell id="3zoKb5Z7oSnxqDjQIx2D-7" value="Category" style="whiteSpace=wrap;html=1;align=center;" parent="1" vertex="1">
          <mxGeometry x="296" y="596" width="125" height="50" as="geometry" />
        </mxCell>
        <mxCell id="3zoKb5Z7oSnxqDjQIx2D-8" value="" style="endArrow=none;html=1;rounded=0;exitX=0;exitY=0.5;exitDx=0;exitDy=0;entryX=0.5;entryY=0;entryDx=0;entryDy=0;" parent="1" source="3zoKb5Z7oSnxqDjQIx2D-2" edge="1">
          <mxGeometry relative="1" as="geometry">
            <mxPoint x="451" y="583" as="sourcePoint" />
            <mxPoint x="358.5" y="455" as="targetPoint" />
            <Array as="points">
              <mxPoint x="358" y="413" />
            </Array>
          </mxGeometry>
        </mxCell>
        <mxCell id="3zoKb5Z7oSnxqDjQIx2D-9" value="N" style="resizable=0;html=1;align=left;verticalAlign=bottom;" parent="3zoKb5Z7oSnxqDjQIx2D-8" connectable="0" vertex="1">
          <mxGeometry x="-1" relative="1" as="geometry">
            <mxPoint x="-18" y="-2" as="offset" />
          </mxGeometry>
        </mxCell>
        <mxCell id="3zoKb5Z7oSnxqDjQIx2D-11" value="" style="endArrow=none;html=1;rounded=0;entryX=0.5;entryY=0;entryDx=0;entryDy=0;exitX=0.5;exitY=1;exitDx=0;exitDy=0;" parent="1" target="3zoKb5Z7oSnxqDjQIx2D-7" edge="1">
          <mxGeometry relative="1" as="geometry">
            <mxPoint x="358.5" y="515" as="sourcePoint" />
            <mxPoint x="876" y="546" as="targetPoint" />
          </mxGeometry>
        </mxCell>
        <mxCell id="3zoKb5Z7oSnxqDjQIx2D-12" value="1" style="resizable=0;html=1;align=right;verticalAlign=bottom;" parent="3zoKb5Z7oSnxqDjQIx2D-11" connectable="0" vertex="1">
          <mxGeometry x="1" relative="1" as="geometry">
            <mxPoint x="-9" y="-4" as="offset" />
          </mxGeometry>
        </mxCell>
        <mxCell id="3zoKb5Z7oSnxqDjQIx2D-13" value="1" style="resizable=0;html=1;align=right;verticalAlign=bottom;" parent="3zoKb5Z7oSnxqDjQIx2D-11" connectable="0" vertex="1">
          <mxGeometry x="1" relative="1" as="geometry">
            <mxPoint x="225" y="-185" as="offset" />
          </mxGeometry>
        </mxCell>
        <mxCell id="3zoKb5Z7oSnxqDjQIx2D-14" value="1" style="resizable=0;html=1;align=right;verticalAlign=bottom;" parent="3zoKb5Z7oSnxqDjQIx2D-11" connectable="0" vertex="1">
          <mxGeometry x="1" relative="1" as="geometry">
            <mxPoint x="141" y="-134" as="offset" />
          </mxGeometry>
        </mxCell>
        <mxCell id="3zoKb5Z7oSnxqDjQIx2D-15" value="" style="endArrow=none;html=1;rounded=0;exitX=1;exitY=0.5;exitDx=0;exitDy=0;entryX=0;entryY=0.5;entryDx=0;entryDy=0;" parent="1" source="3zoKb5Z7oSnxqDjQIx2D-2" target="3zoKb5Z7oSnxqDjQIx2D-3" edge="1">
          <mxGeometry relative="1" as="geometry">
            <mxPoint x="531" y="463" as="sourcePoint" />
            <mxPoint x="691" y="463" as="targetPoint" />
          </mxGeometry>
        </mxCell>
        <mxCell id="3zoKb5Z7oSnxqDjQIx2D-16" value="1" style="resizable=0;html=1;align=right;verticalAlign=bottom;" parent="3zoKb5Z7oSnxqDjQIx2D-15" connectable="0" vertex="1">
          <mxGeometry x="1" relative="1" as="geometry">
            <mxPoint x="-8" y="-55" as="offset" />
          </mxGeometry>
        </mxCell>
        <mxCell id="3zoKb5Z7oSnxqDjQIx2D-17" value="" style="endArrow=none;html=1;rounded=0;exitX=0.5;exitY=1;exitDx=0;exitDy=0;entryX=0;entryY=0.5;entryDx=0;entryDy=0;" parent="1" source="3zoKb5Z7oSnxqDjQIx2D-3" edge="1">
          <mxGeometry relative="1" as="geometry">
            <mxPoint x="446" y="573" as="sourcePoint" />
            <mxPoint x="768" y="547" as="targetPoint" />
            <Array as="points">
              <mxPoint x="669" y="547" />
            </Array>
          </mxGeometry>
        </mxCell>
        <mxCell id="3zoKb5Z7oSnxqDjQIx2D-18" value="1" style="resizable=0;html=1;align=right;verticalAlign=bottom;" parent="3zoKb5Z7oSnxqDjQIx2D-17" connectable="0" vertex="1">
          <mxGeometry x="1" relative="1" as="geometry">
            <mxPoint x="-8" y="-3" as="offset" />
          </mxGeometry>
        </mxCell>
        <mxCell id="3zoKb5Z7oSnxqDjQIx2D-27" value="Username" style="ellipse;whiteSpace=wrap;html=1;align=center;fontStyle=4;" parent="1" vertex="1">
          <mxGeometry x="991" y="318" width="100" height="40" as="geometry" />
        </mxCell>
        <mxCell id="3zoKb5Z7oSnxqDjQIx2D-28" value="Price" style="ellipse;whiteSpace=wrap;html=1;align=center;fontStyle=4;" parent="1" vertex="1">
          <mxGeometry x="365" y="321" width="100" height="40" as="geometry" />
        </mxCell>
        <mxCell id="3zoKb5Z7oSnxqDjQIx2D-31" value="" style="endArrow=none;html=1;rounded=0;exitX=1;exitY=1;exitDx=0;exitDy=0;entryX=0.25;entryY=0;entryDx=0;entryDy=0;" parent="1" source="3zoKb5Z7oSnxqDjQIx2D-28" target="3zoKb5Z7oSnxqDjQIx2D-2" edge="1">
          <mxGeometry relative="1" as="geometry">
            <mxPoint x="276" y="593" as="sourcePoint" />
            <mxPoint x="556" y="343" as="targetPoint" />
          </mxGeometry>
        </mxCell>
        <mxCell id="3zoKb5Z7oSnxqDjQIx2D-32" value="" style="endArrow=none;html=1;rounded=0;entryX=1;entryY=1;entryDx=0;entryDy=0;exitX=0.25;exitY=0;exitDx=0;exitDy=0;" parent="1" source="3zoKb5Z7oSnxqDjQIx2D-1" target="3zoKb5Z7oSnxqDjQIx2D-56" edge="1">
          <mxGeometry relative="1" as="geometry">
            <mxPoint x="799" y="260" as="sourcePoint" />
            <mxPoint x="772.3000000000002" y="239.15999999999997" as="targetPoint" />
          </mxGeometry>
        </mxCell>
        <mxCell id="3zoKb5Z7oSnxqDjQIx2D-33" value="" style="endArrow=none;html=1;rounded=0;exitX=0.5;exitY=1;exitDx=0;exitDy=0;entryX=0.25;entryY=0;entryDx=0;entryDy=0;" parent="1" source="3zoKb5Z7oSnxqDjQIx2D-27" target="3zoKb5Z7oSnxqDjQIx2D-5" edge="1">
          <mxGeometry relative="1" as="geometry">
            <mxPoint x="1091" y="253" as="sourcePoint" />
            <mxPoint x="1251" y="253" as="targetPoint" />
          </mxGeometry>
        </mxCell>
        <mxCell id="3zoKb5Z7oSnxqDjQIx2D-37" value="Status" style="ellipse;whiteSpace=wrap;html=1;align=center;" parent="1" vertex="1">
          <mxGeometry x="780.5" y="150" width="100" height="40" as="geometry" />
        </mxCell>
        <mxCell id="3zoKb5Z7oSnxqDjQIx2D-38" value="" style="endArrow=none;html=1;rounded=0;entryX=0.5;entryY=1;entryDx=0;entryDy=0;exitX=0.5;exitY=0;exitDx=0;exitDy=0;" parent="1" source="3zoKb5Z7oSnxqDjQIx2D-1" target="3zoKb5Z7oSnxqDjQIx2D-37" edge="1">
          <mxGeometry relative="1" as="geometry">
            <mxPoint x="844" y="253" as="sourcePoint" />
            <mxPoint x="1123" y="300" as="targetPoint" />
          </mxGeometry>
        </mxCell>
        <mxCell id="3zoKb5Z7oSnxqDjQIx2D-39" value="Names" style="ellipse;whiteSpace=wrap;html=1;align=center;" parent="1" vertex="1">
          <mxGeometry x="1120" y="318" width="100" height="40" as="geometry" />
        </mxCell>
        <mxCell id="3zoKb5Z7oSnxqDjQIx2D-40" value="" style="endArrow=none;html=1;rounded=0;exitX=0.5;exitY=0;exitDx=0;exitDy=0;entryX=0.5;entryY=1;entryDx=0;entryDy=0;" parent="1" source="3zoKb5Z7oSnxqDjQIx2D-5" target="3zoKb5Z7oSnxqDjQIx2D-39" edge="1">
          <mxGeometry relative="1" as="geometry">
            <mxPoint x="1171" y="363" as="sourcePoint" />
            <mxPoint x="1331" y="363" as="targetPoint" />
          </mxGeometry>
        </mxCell>
        <mxCell id="3zoKb5Z7oSnxqDjQIx2D-41" value="Name" style="ellipse;whiteSpace=wrap;html=1;align=center;" parent="1" vertex="1">
          <mxGeometry x="542.5" y="318" width="100" height="40" as="geometry" />
        </mxCell>
        <mxCell id="3zoKb5Z7oSnxqDjQIx2D-42" value="" style="endArrow=none;html=1;rounded=0;exitX=0.75;exitY=0;exitDx=0;exitDy=0;entryX=0;entryY=1;entryDx=0;entryDy=0;" parent="1" source="3zoKb5Z7oSnxqDjQIx2D-2" edge="1">
          <mxGeometry relative="1" as="geometry">
            <mxPoint x="546" y="373" as="sourcePoint" />
            <mxPoint x="565.8544793961721" y="355.22556786345433" as="targetPoint" />
          </mxGeometry>
        </mxCell>
        <mxCell id="3zoKb5Z7oSnxqDjQIx2D-46" value="" style="endArrow=none;html=1;rounded=0;exitX=0.5;exitY=1;exitDx=0;exitDy=0;entryX=1;entryY=0.5;entryDx=0;entryDy=0;" parent="1" source="3zoKb5Z7oSnxqDjQIx2D-4" target="3zoKb5Z7oSnxqDjQIx2D-101" edge="1">
          <mxGeometry relative="1" as="geometry">
            <mxPoint x="1149.75" y="398" as="sourcePoint" />
            <mxPoint x="1234.33" y="556" as="targetPoint" />
            <Array as="points">
              <mxPoint x="1130" y="865" />
            </Array>
          </mxGeometry>
        </mxCell>
        <mxCell id="3zoKb5Z7oSnxqDjQIx2D-53" value="Date" style="ellipse;whiteSpace=wrap;html=1;align=center;" parent="1" vertex="1">
          <mxGeometry x="861" y="200" width="100" height="40" as="geometry" />
        </mxCell>
        <mxCell id="3zoKb5Z7oSnxqDjQIx2D-54" value="" style="endArrow=none;html=1;rounded=0;entryX=0;entryY=1;entryDx=0;entryDy=0;exitX=0.75;exitY=0;exitDx=0;exitDy=0;" parent="1" source="3zoKb5Z7oSnxqDjQIx2D-1" target="3zoKb5Z7oSnxqDjQIx2D-53" edge="1">
          <mxGeometry relative="1" as="geometry">
            <mxPoint x="809" y="270" as="sourcePoint" />
            <mxPoint x="782.3" y="239.15999999999997" as="targetPoint" />
          </mxGeometry>
        </mxCell>
        <mxCell id="3zoKb5Z7oSnxqDjQIx2D-55" value="" style="endArrow=none;html=1;rounded=0;entryX=0.75;entryY=1;entryDx=0;entryDy=0;exitX=0.5;exitY=0;exitDx=0;exitDy=0;" parent="1" source="3zoKb5Z7oSnxqDjQIx2D-62" target="3zoKb5Z7oSnxqDjQIx2D-59" edge="1">
          <mxGeometry relative="1" as="geometry">
            <mxPoint x="830.5" y="655" as="sourcePoint" />
            <mxPoint x="830.5" y="572" as="targetPoint" />
          </mxGeometry>
        </mxCell>
        <mxCell id="3zoKb5Z7oSnxqDjQIx2D-56" value="Total Amount" style="ellipse;whiteSpace=wrap;html=1;align=center;fontStyle=4;" parent="1" vertex="1">
          <mxGeometry x="698" y="200" width="100" height="40" as="geometry" />
        </mxCell>
        <mxCell id="3zoKb5Z7oSnxqDjQIx2D-57" value="" style="endArrow=none;html=1;rounded=0;entryX=0.5;entryY=1;entryDx=0;entryDy=0;exitX=0.5;exitY=0;exitDx=0;exitDy=0;" parent="1" target="3zoKb5Z7oSnxqDjQIx2D-2" edge="1">
          <mxGeometry relative="1" as="geometry">
            <mxPoint x="506" y="550" as="sourcePoint" />
            <mxPoint x="543" y="466" as="targetPoint" />
          </mxGeometry>
        </mxCell>
        <mxCell id="3zoKb5Z7oSnxqDjQIx2D-59" value="Order_Item" style="shape=ext;margin=3;double=1;whiteSpace=wrap;html=1;align=center;" parent="1" vertex="1">
          <mxGeometry x="768" y="522" width="125" height="50" as="geometry" />
        </mxCell>
        <mxCell id="3zoKb5Z7oSnxqDjQIx2D-62" value="&lt;span style=&quot;border-bottom: 1px dotted&quot;&gt;Total Price&lt;br&gt;&lt;/span&gt;" style="ellipse;whiteSpace=wrap;html=1;align=center;" parent="1" vertex="1">
          <mxGeometry x="811" y="680" width="100" height="40" as="geometry" />
        </mxCell>
        <mxCell id="3zoKb5Z7oSnxqDjQIx2D-118" value="" style="edgeStyle=orthogonalEdgeStyle;rounded=0;orthogonalLoop=1;jettySize=auto;html=1;" parent="1" target="3zoKb5Z7oSnxqDjQIx2D-2" edge="1">
          <mxGeometry relative="1" as="geometry">
            <mxPoint x="506" y="550" as="sourcePoint" />
          </mxGeometry>
        </mxCell>
        <mxCell id="3zoKb5Z7oSnxqDjQIx2D-72" value="Address" style="whiteSpace=wrap;html=1;align=center;" parent="1" vertex="1">
          <mxGeometry x="1340" y="300" width="125" height="50" as="geometry" />
        </mxCell>
        <mxCell id="3zoKb5Z7oSnxqDjQIx2D-76" value="Street" style="ellipse;whiteSpace=wrap;html=1;align=center;" parent="1" vertex="1">
          <mxGeometry x="1220" y="229.5" width="100" height="27" as="geometry" />
        </mxCell>
        <mxCell id="3zoKb5Z7oSnxqDjQIx2D-77" value="City" style="ellipse;whiteSpace=wrap;html=1;align=center;" parent="1" vertex="1">
          <mxGeometry x="1270" y="170" width="100" height="40" as="geometry" />
        </mxCell>
        <mxCell id="3zoKb5Z7oSnxqDjQIx2D-78" value="State" style="ellipse;whiteSpace=wrap;html=1;align=center;" parent="1" vertex="1">
          <mxGeometry x="1340" y="130" width="100" height="40" as="geometry" />
        </mxCell>
        <mxCell id="3zoKb5Z7oSnxqDjQIx2D-79" value="Zip Code" style="ellipse;whiteSpace=wrap;html=1;align=center;" parent="1" vertex="1">
          <mxGeometry x="1440" y="170" width="100" height="40" as="geometry" />
        </mxCell>
        <mxCell id="3zoKb5Z7oSnxqDjQIx2D-80" value="Country" style="ellipse;whiteSpace=wrap;html=1;align=center;" parent="1" vertex="1">
          <mxGeometry x="1480" y="223" width="100" height="40" as="geometry" />
        </mxCell>
        <mxCell id="3zoKb5Z7oSnxqDjQIx2D-83" value="" style="endArrow=none;html=1;rounded=0;exitX=0.5;exitY=0;exitDx=0;exitDy=0;" parent="1" source="3zoKb5Z7oSnxqDjQIx2D-72" target="3zoKb5Z7oSnxqDjQIx2D-79" edge="1">
          <mxGeometry width="50" height="50" relative="1" as="geometry">
            <mxPoint x="1440" y="340" as="sourcePoint" />
            <mxPoint x="1490" y="290" as="targetPoint" />
          </mxGeometry>
        </mxCell>
        <mxCell id="3zoKb5Z7oSnxqDjQIx2D-85" value="" style="endArrow=none;html=1;rounded=0;entryX=0.5;entryY=1;entryDx=0;entryDy=0;exitX=0.5;exitY=0;exitDx=0;exitDy=0;" parent="1" source="3zoKb5Z7oSnxqDjQIx2D-72" target="3zoKb5Z7oSnxqDjQIx2D-78" edge="1">
          <mxGeometry width="50" height="50" relative="1" as="geometry">
            <mxPoint x="1440" y="340" as="sourcePoint" />
            <mxPoint x="1490" y="290" as="targetPoint" />
          </mxGeometry>
        </mxCell>
        <mxCell id="3zoKb5Z7oSnxqDjQIx2D-86" value="" style="endArrow=none;html=1;rounded=0;exitX=0.25;exitY=0;exitDx=0;exitDy=0;entryX=0.5;entryY=1;entryDx=0;entryDy=0;" parent="1" source="3zoKb5Z7oSnxqDjQIx2D-72" target="3zoKb5Z7oSnxqDjQIx2D-76" edge="1">
          <mxGeometry relative="1" as="geometry">
            <mxPoint x="1150" y="398" as="sourcePoint" />
            <mxPoint x="1191" y="368" as="targetPoint" />
          </mxGeometry>
        </mxCell>
        <mxCell id="3zoKb5Z7oSnxqDjQIx2D-87" value="" style="endArrow=none;html=1;rounded=0;entryX=0.5;entryY=1;entryDx=0;entryDy=0;" parent="1" target="3zoKb5Z7oSnxqDjQIx2D-77" edge="1">
          <mxGeometry width="50" height="50" relative="1" as="geometry">
            <mxPoint x="1400" y="300" as="sourcePoint" />
            <mxPoint x="1490" y="290" as="targetPoint" />
          </mxGeometry>
        </mxCell>
        <mxCell id="3zoKb5Z7oSnxqDjQIx2D-88" value="" style="endArrow=none;html=1;rounded=0;entryX=0.351;entryY=0.932;entryDx=0;entryDy=0;entryPerimeter=0;exitX=0.75;exitY=0;exitDx=0;exitDy=0;" parent="1" source="3zoKb5Z7oSnxqDjQIx2D-72" target="3zoKb5Z7oSnxqDjQIx2D-80" edge="1">
          <mxGeometry width="50" height="50" relative="1" as="geometry">
            <mxPoint x="1420" y="340" as="sourcePoint" />
            <mxPoint x="1470" y="290" as="targetPoint" />
          </mxGeometry>
        </mxCell>
        <mxCell id="3zoKb5Z7oSnxqDjQIx2D-91" style="edgeStyle=orthogonalEdgeStyle;rounded=0;orthogonalLoop=1;jettySize=auto;html=1;entryX=1;entryY=0.5;entryDx=0;entryDy=0;" parent="1" target="3zoKb5Z7oSnxqDjQIx2D-5" edge="1">
          <mxGeometry relative="1" as="geometry">
            <mxPoint x="1250" y="413" as="sourcePoint" />
          </mxGeometry>
        </mxCell>
        <mxCell id="3zoKb5Z7oSnxqDjQIx2D-90" value="" style="endArrow=none;html=1;rounded=0;entryX=0.5;entryY=1;entryDx=0;entryDy=0;exitX=1;exitY=0.5;exitDx=0;exitDy=0;" parent="1" target="3zoKb5Z7oSnxqDjQIx2D-72" edge="1">
          <mxGeometry width="50" height="50" relative="1" as="geometry">
            <mxPoint x="1330" y="413" as="sourcePoint" />
            <mxPoint x="1220" y="460" as="targetPoint" />
            <Array as="points">
              <mxPoint x="1403" y="415" />
            </Array>
          </mxGeometry>
        </mxCell>
        <mxCell id="3zoKb5Z7oSnxqDjQIx2D-94" value="" style="endArrow=none;html=1;rounded=0;entryX=0.557;entryY=-0.012;entryDx=0;entryDy=0;exitX=0.411;exitY=1.013;exitDx=0;exitDy=0;exitPerimeter=0;entryPerimeter=0;" parent="1" source="3zoKb5Z7oSnxqDjQIx2D-101" target="3zoKb5Z7oSnxqDjQIx2D-100" edge="1">
          <mxGeometry relative="1" as="geometry">
            <mxPoint x="751.0799999999999" y="927" as="sourcePoint" />
            <mxPoint x="760.1300000000001" y="909.16" as="targetPoint" />
          </mxGeometry>
        </mxCell>
        <mxCell id="3zoKb5Z7oSnxqDjQIx2D-100" value="Rating" style="ellipse;whiteSpace=wrap;html=1;align=center;fontStyle=4;" parent="1" vertex="1">
          <mxGeometry x="640.8299999999999" y="1042.5" width="100" height="40" as="geometry" />
        </mxCell>
        <mxCell id="3zoKb5Z7oSnxqDjQIx2D-101" value="Product Review" style="whiteSpace=wrap;html=1;align=center;" parent="1" vertex="1">
          <mxGeometry x="684" y="840" width="125" height="50" as="geometry" />
        </mxCell>
        <mxCell id="3zoKb5Z7oSnxqDjQIx2D-104" value="Review Text" style="ellipse;whiteSpace=wrap;html=1;align=center;" parent="1" vertex="1">
          <mxGeometry x="753.3299999999999" y="1042.5" width="100" height="40" as="geometry" />
        </mxCell>
        <mxCell id="3zoKb5Z7oSnxqDjQIx2D-105" value="" style="endArrow=none;html=1;rounded=0;entryX=0.5;entryY=0;entryDx=0;entryDy=0;exitX=0.576;exitY=0.993;exitDx=0;exitDy=0;exitPerimeter=0;" parent="1" source="3zoKb5Z7oSnxqDjQIx2D-101" target="3zoKb5Z7oSnxqDjQIx2D-104" edge="1">
          <mxGeometry relative="1" as="geometry">
            <mxPoint x="831.8299999999999" y="923" as="sourcePoint" />
            <mxPoint x="1110.83" y="970" as="targetPoint" />
          </mxGeometry>
        </mxCell>
        <mxCell id="3zoKb5Z7oSnxqDjQIx2D-107" value="Review Date" style="ellipse;whiteSpace=wrap;html=1;align=center;" parent="1" vertex="1">
          <mxGeometry x="864.8299999999999" y="1042.5" width="100" height="40" as="geometry" />
        </mxCell>
        <mxCell id="3zoKb5Z7oSnxqDjQIx2D-108" value="" style="endArrow=none;html=1;rounded=0;entryX=0.34;entryY=0.058;entryDx=0;entryDy=0;exitX=0.723;exitY=0.96;exitDx=0;exitDy=0;exitPerimeter=0;entryPerimeter=0;" parent="1" source="3zoKb5Z7oSnxqDjQIx2D-101" target="3zoKb5Z7oSnxqDjQIx2D-107" edge="1">
          <mxGeometry relative="1" as="geometry">
            <mxPoint x="796.8299999999999" y="940" as="sourcePoint" />
            <mxPoint x="770.1299999999999" y="909.16" as="targetPoint" />
          </mxGeometry>
        </mxCell>
        <mxCell id="3zoKb5Z7oSnxqDjQIx2D-111" value="" style="endArrow=none;html=1;rounded=0;exitX=0.5;exitY=1;exitDx=0;exitDy=0;entryX=0.5;entryY=0;entryDx=0;entryDy=0;" parent="1" source="3zoKb5Z7oSnxqDjQIx2D-5" target="3zoKb5Z7oSnxqDjQIx2D-4" edge="1">
          <mxGeometry relative="1" as="geometry">
            <mxPoint x="1109" y="438" as="sourcePoint" />
            <mxPoint x="1173" y="576" as="targetPoint" />
          </mxGeometry>
        </mxCell>
        <mxCell id="3zoKb5Z7oSnxqDjQIx2D-4" value="Writes" style="shape=rhombus;perimeter=rhombusPerimeter;whiteSpace=wrap;html=1;align=center;" parent="1" vertex="1">
          <mxGeometry x="1078.5" y="522" width="80" height="60" as="geometry" />
        </mxCell>
        <mxCell id="3zoKb5Z7oSnxqDjQIx2D-115" value="" style="endArrow=none;html=1;rounded=0;exitX=0.5;exitY=1;exitDx=0;exitDy=0;entryX=0;entryY=0.608;entryDx=0;entryDy=0;entryPerimeter=0;" parent="1" source="3zoKb5Z7oSnxqDjQIx2D-116" target="3zoKb5Z7oSnxqDjQIx2D-7" edge="1">
          <mxGeometry relative="1" as="geometry">
            <mxPoint x="370.29999999999995" y="634.2" as="sourcePoint" />
            <mxPoint x="318.5" y="654" as="targetPoint" />
          </mxGeometry>
        </mxCell>
        <mxCell id="3zoKb5Z7oSnxqDjQIx2D-116" value="Description" style="ellipse;whiteSpace=wrap;html=1;align=center;fontStyle=4;" parent="1" vertex="1">
          <mxGeometry x="151.5" y="623" width="100" height="40" as="geometry" />
        </mxCell>
        <mxCell id="3zoKb5Z7oSnxqDjQIx2D-117" value="" style="endArrow=none;html=1;rounded=0;entryX=0;entryY=0.25;entryDx=0;entryDy=0;" parent="1" edge="1">
          <mxGeometry width="50" height="50" relative="1" as="geometry">
            <mxPoint x="510" y="646" as="sourcePoint" />
            <mxPoint x="694" y="844.5000000000002" as="targetPoint" />
            <Array as="points">
              <mxPoint x="510" y="845" />
            </Array>
          </mxGeometry>
        </mxCell>
        <mxCell id="3zoKb5Z7oSnxqDjQIx2D-124" style="edgeStyle=orthogonalEdgeStyle;rounded=0;orthogonalLoop=1;jettySize=auto;html=1;exitX=0;exitY=0.5;exitDx=0;exitDy=0;entryX=0.5;entryY=1;entryDx=0;entryDy=0;" parent="1" source="3zoKb5Z7oSnxqDjQIx2D-122" target="3zoKb5Z7oSnxqDjQIx2D-133" edge="1">
          <mxGeometry relative="1" as="geometry">
            <mxPoint x="450" y="160" as="targetPoint" />
          </mxGeometry>
        </mxCell>
        <mxCell id="3zoKb5Z7oSnxqDjQIx2D-122" value="Has" style="shape=rhombus;perimeter=rhombusPerimeter;whiteSpace=wrap;html=1;align=center;" parent="1" vertex="1">
          <mxGeometry x="547.5" y="213" width="80" height="60" as="geometry" />
        </mxCell>
        <mxCell id="3zoKb5Z7oSnxqDjQIx2D-125" value="School" style="whiteSpace=wrap;html=1;align=center;" parent="1" vertex="1">
          <mxGeometry x="388.5" y="131" width="125" height="50" as="geometry" />
        </mxCell>
        <mxCell id="3zoKb5Z7oSnxqDjQIx2D-126" value="N" style="resizable=0;html=1;align=right;verticalAlign=bottom;" parent="1" connectable="0" vertex="1">
          <mxGeometry x="470.0000000000002" y="200" as="geometry" />
        </mxCell>
        <mxCell id="3zoKb5Z7oSnxqDjQIx2D-127" value="" style="endArrow=none;html=1;rounded=0;entryX=1;entryY=1;entryDx=0;entryDy=0;exitX=0.25;exitY=0;exitDx=0;exitDy=0;" parent="1" source="3zoKb5Z7oSnxqDjQIx2D-125" target="3zoKb5Z7oSnxqDjQIx2D-132" edge="1">
          <mxGeometry relative="1" as="geometry">
            <mxPoint x="419.5" y="130" as="sourcePoint" />
            <mxPoint x="392.8000000000002" y="109.15999999999997" as="targetPoint" />
          </mxGeometry>
        </mxCell>
        <mxCell id="3zoKb5Z7oSnxqDjQIx2D-128" value="school name" style="ellipse;whiteSpace=wrap;html=1;align=center;" parent="1" vertex="1">
          <mxGeometry x="401" y="20" width="100" height="40" as="geometry" />
        </mxCell>
        <mxCell id="3zoKb5Z7oSnxqDjQIx2D-129" value="" style="endArrow=none;html=1;rounded=0;entryX=0.5;entryY=1;entryDx=0;entryDy=0;exitX=0.5;exitY=0;exitDx=0;exitDy=0;" parent="1" source="3zoKb5Z7oSnxqDjQIx2D-125" target="3zoKb5Z7oSnxqDjQIx2D-128" edge="1">
          <mxGeometry relative="1" as="geometry">
            <mxPoint x="464.5" y="123" as="sourcePoint" />
            <mxPoint x="743.5" y="170" as="targetPoint" />
          </mxGeometry>
        </mxCell>
        <mxCell id="3zoKb5Z7oSnxqDjQIx2D-130" value="principal" style="ellipse;whiteSpace=wrap;html=1;align=center;" parent="1" vertex="1">
          <mxGeometry x="481.5" y="70" width="100" height="40" as="geometry" />
        </mxCell>
        <mxCell id="3zoKb5Z7oSnxqDjQIx2D-131" value="" style="endArrow=none;html=1;rounded=0;entryX=0;entryY=1;entryDx=0;entryDy=0;exitX=0.75;exitY=0;exitDx=0;exitDy=0;" parent="1" source="3zoKb5Z7oSnxqDjQIx2D-125" target="3zoKb5Z7oSnxqDjQIx2D-130" edge="1">
          <mxGeometry relative="1" as="geometry">
            <mxPoint x="429.5" y="140" as="sourcePoint" />
            <mxPoint x="402.79999999999995" y="109.15999999999997" as="targetPoint" />
          </mxGeometry>
        </mxCell>
        <mxCell id="3zoKb5Z7oSnxqDjQIx2D-132" value="address" style="ellipse;whiteSpace=wrap;html=1;align=center;fontStyle=4;" parent="1" vertex="1">
          <mxGeometry x="318.5" y="70" width="100" height="40" as="geometry" />
        </mxCell>
        <mxCell id="3zoKb5Z7oSnxqDjQIx2D-133" value="Payment" style="whiteSpace=wrap;html=1;align=center;" parent="1" vertex="1">
          <mxGeometry x="388.5" y="131" width="125" height="50" as="geometry" />
        </mxCell>
        <mxCell id="3zoKb5Z7oSnxqDjQIx2D-134" value="" style="endArrow=none;html=1;rounded=0;entryX=1;entryY=1;entryDx=0;entryDy=0;exitX=0.25;exitY=0;exitDx=0;exitDy=0;" parent="1" source="3zoKb5Z7oSnxqDjQIx2D-133" target="3zoKb5Z7oSnxqDjQIx2D-139" edge="1">
          <mxGeometry relative="1" as="geometry">
            <mxPoint x="419.5" y="130" as="sourcePoint" />
            <mxPoint x="392.8000000000002" y="109.15999999999997" as="targetPoint" />
          </mxGeometry>
        </mxCell>
        <mxCell id="3zoKb5Z7oSnxqDjQIx2D-135" value="Method" style="ellipse;whiteSpace=wrap;html=1;align=center;" parent="1" vertex="1">
          <mxGeometry x="401" y="20" width="100" height="40" as="geometry" />
        </mxCell>
        <mxCell id="3zoKb5Z7oSnxqDjQIx2D-136" value="" style="endArrow=none;html=1;rounded=0;entryX=0.5;entryY=1;entryDx=0;entryDy=0;exitX=0.5;exitY=0;exitDx=0;exitDy=0;" parent="1" source="3zoKb5Z7oSnxqDjQIx2D-133" target="3zoKb5Z7oSnxqDjQIx2D-135" edge="1">
          <mxGeometry relative="1" as="geometry">
            <mxPoint x="464.5" y="123" as="sourcePoint" />
            <mxPoint x="743.5" y="170" as="targetPoint" />
          </mxGeometry>
        </mxCell>
        <mxCell id="3zoKb5Z7oSnxqDjQIx2D-137" value="Date" style="ellipse;whiteSpace=wrap;html=1;align=center;" parent="1" vertex="1">
          <mxGeometry x="481.5" y="70" width="100" height="40" as="geometry" />
        </mxCell>
        <mxCell id="3zoKb5Z7oSnxqDjQIx2D-138" value="" style="endArrow=none;html=1;rounded=0;entryX=0;entryY=1;entryDx=0;entryDy=0;exitX=0.75;exitY=0;exitDx=0;exitDy=0;" parent="1" source="3zoKb5Z7oSnxqDjQIx2D-133" target="3zoKb5Z7oSnxqDjQIx2D-137" edge="1">
          <mxGeometry relative="1" as="geometry">
            <mxPoint x="429.5" y="140" as="sourcePoint" />
            <mxPoint x="402.79999999999995" y="109.15999999999997" as="targetPoint" />
          </mxGeometry>
        </mxCell>
        <mxCell id="3zoKb5Z7oSnxqDjQIx2D-139" value="Total Amount" style="ellipse;whiteSpace=wrap;html=1;align=center;fontStyle=4;" parent="1" vertex="1">
          <mxGeometry x="318.5" y="70" width="100" height="40" as="geometry" />
        </mxCell>
        <mxCell id="hABtKPLDZT9XmnVRfCkw-1" value="1" style="resizable=0;html=1;align=right;verticalAlign=bottom;" parent="1" connectable="0" vertex="1">
          <mxGeometry x="840" y="311" as="geometry">
            <mxPoint x="-19" y="20" as="offset" />
          </mxGeometry>
        </mxCell>
        <mxCell id="hABtKPLDZT9XmnVRfCkw-2" value="1" style="resizable=0;html=1;align=right;verticalAlign=bottom;" parent="1" connectable="0" vertex="1">
          <mxGeometry x="760.5" y="280" as="geometry" />
        </mxCell>
        <mxCell id="C4mGJOtwYJf4g0QDHC6r-1" value="lives at" style="rhombus;whiteSpace=wrap;html=1;" vertex="1" parent="1">
          <mxGeometry x="1250" y="373" width="80" height="80" as="geometry" />
        </mxCell>
        <mxCell id="C4mGJOtwYJf4g0QDHC6r-3" value="Contains" style="rhombus;whiteSpace=wrap;html=1;" vertex="1" parent="1">
          <mxGeometry x="770" y="384" width="120" height="58" as="geometry" />
        </mxCell>
        <mxCell id="C4mGJOtwYJf4g0QDHC6r-5" value="Categorizes" style="rhombus;whiteSpace=wrap;html=1;" vertex="1" parent="1">
          <mxGeometry x="313.5" y="453" width="90" height="62" as="geometry" />
        </mxCell>
        <mxCell id="C4mGJOtwYJf4g0QDHC6r-6" value="Reviewed in" style="rhombus;whiteSpace=wrap;html=1;" vertex="1" parent="1">
          <mxGeometry x="451.5" y="556" width="109" height="90" as="geometry" />
        </mxCell>
      </root>
    </mxGraphModel>
  </diagram>
</mxfile>
